<?xml version="1.0" standalone="no"?>
<!DOCTYPE svg PUBLIC "-//W3C//DTD SVG 20010904//EN"
 "http://www.w3.org/TR/2001/REC-SVG-20010904/DTD/svg10.dtd">
<svg version="1.0" xmlns="http://www.w3.org/2000/svg"
 width="512.000000pt" height="512.000000pt" viewBox="0 0 512.000000 512.000000"
 preserveAspectRatio="xMidYMid meet">
<metadata>
Created by potrace 1.14, written by Peter Selinger 2001-2017
</metadata>
<g transform="translate(0.000000,512.000000) scale(0.100000,-0.100000)"
fill="#000000" stroke="none">
<path d="M2315 5109 c-800 -83 -1501 -518 -1927 -1196 -487 -774 -516 -1777
-75 -2578 200 -364 487 -676 841 -913 238 -159 600 -311 876 -366 214 -43 295
-51 530 -51 236 0 333 10 532 51 880 184 1615 842 1898 1702 92 278 125 491
125 802 0 301 -32 513 -116 775 -124 390 -330 728 -622 1024 -399 404 -893
653 -1462 737 -123 18 -478 26 -600 13z m-828 -1080 c42 -40 53 -72 53 -159
l0 -80 85 0 85 0 0 83 c0 97 18 141 71 169 44 23 86 23 127 -2 55 -34 72 -73
72 -167 l0 -83 85 0 85 0 0 83 c0 94 17 133 72 167 41 25 83 25 127 2 53 -28
71 -72 71 -169 l0 -83 84 0 84 0 4 95 c3 94 3 95 39 131 44 44 99 55 150 30
59 -29 74 -59 77 -163 l4 -93 84 0 84 0 0 83 c0 94 17 133 72 167 41 25 83 25
127 2 53 -28 71 -72 71 -169 l0 -83 50 0 c67 0 115 -21 140 -62 20 -33 20 -47
20 -1303 0 -996 -3 -1275 -13 -1295 -7 -13 -28 -35 -46 -47 l-34 -23 -1129 0
c-1247 0 -1167 -4 -1208 63 -19 31 -20 60 -20 1297 0 1184 1 1267 18 1300 22
45 72 70 140 70 l52 0 0 83 c0 97 18 140 71 169 45 25 111 19 146 -13z m2488
-142 c22 -13 49 -40 62 -62 l23 -40 0 -1100 0 -1100 -77 -184 c-43 -101 -84
-186 -92 -189 -7 -3 -20 -1 -28 4 -8 5 -48 87 -89 183 l-74 173 0 1104 c0
1174 -2 1143 46 1186 60 53 160 64 229 25z"/>
<path d="M1373 3988 c-38 -18 -43 -52 -41 -266 3 -201 3 -204 27 -223 30 -25
66 -24 91 1 19 19 20 33 20 238 0 196 -2 221 -17 234 -26 22 -55 28 -80 16z"/>
<path d="M1813 3988 c-38 -18 -43 -52 -41 -266 3 -201 3 -204 27 -223 30 -25
66 -24 91 1 19 19 20 33 20 238 0 196 -2 221 -17 234 -26 22 -55 28 -80 16z"/>
<path d="M2270 3993 c-49 -18 -50 -23 -50 -255 0 -205 1 -219 20 -238 25 -25
61 -26 91 -1 24 19 24 20 24 236 l0 217 -28 24 c-29 25 -32 26 -57 17z"/>
<path d="M2686 3979 l-26 -20 0 -224 c0 -220 0 -224 22 -239 12 -9 32 -16 43
-16 11 0 31 7 43 16 22 15 22 19 22 239 l0 224 -26 20 c-15 12 -32 21 -39 21
-7 0 -24 -9 -39 -21z"/>
<path d="M3150 3993 c-49 -18 -50 -23 -50 -255 0 -205 1 -219 20 -238 25 -25
61 -26 91 -1 24 19 24 22 27 222 3 219 -2 249 -44 268 -14 6 -26 11 -27 10 -1
0 -9 -3 -17 -6z"/>
<path d="M1146 3704 c-14 -13 -16 -47 -16 -215 l0 -199 1161 0 1160 0 -3 201
c-3 231 -3 229 -95 229 l-53 0 0 -102 c0 -113 -13 -150 -65 -184 -35 -23 -110
-21 -144 3 -47 35 -61 78 -61 186 l0 97 -85 0 -85 0 0 -102 c0 -113 -13 -150
-65 -184 -33 -22 -107 -21 -141 1 -51 33 -64 71 -64 183 l0 102 -85 0 -85 0 0
-102 c0 -113 -13 -150 -65 -184 -35 -23 -110 -21 -144 3 -47 35 -61 78 -61
186 l0 97 -85 0 -85 0 0 -97 c0 -108 -14 -151 -61 -186 -34 -24 -109 -26 -144
-3 -52 34 -65 71 -65 184 l0 102 -85 0 -85 0 0 -97 c0 -108 -14 -151 -61 -186
-34 -24 -109 -26 -144 -3 -52 34 -65 71 -65 184 l0 102 -54 0 c-36 0 -60 -5
-70 -16z"/>
<path d="M1130 2191 c0 -923 2 -1031 16 -1045 14 -14 109 -16 895 -16 l879 0
0 145 0 145 -722 2 -723 3 -3 24 c-2 13 2 28 10 32 7 5 334 9 726 9 l712 0 0
73 c0 43 5 78 12 85 9 9 82 12 265 12 l253 0 0 780 0 780 -1160 0 -1160 0 0
-1029z m1964 723 c12 -12 13 -20 6 -35 -11 -19 -28 -19 -818 -17 l-807 3 -3
24 c-2 13 2 28 10 32 7 5 369 9 805 9 706 0 793 -2 807 -16z m0 -360 c12 -12
13 -20 6 -35 -11 -19 -28 -19 -818 -17 l-807 3 -3 24 c-2 13 2 28 10 32 7 5
369 9 805 9 706 0 793 -2 807 -16z m0 -360 c12 -12 13 -20 6 -35 -11 -19 -28
-19 -818 -17 l-807 3 -3 24 c-2 13 2 28 10 32 7 5 369 9 805 9 706 0 793 -2
807 -16z m0 -360 c12 -12 13 -20 6 -35 -11 -19 -28 -19 -818 -17 l-807 3 -3
24 c-2 13 2 28 10 32 7 5 369 9 805 9 706 0 793 -2 807 -16z"/>
<path d="M2980 1383 l0 -208 205 205 c113 113 205 206 205 207 0 2 -92 3 -205
3 l-205 0 0 -207z"/>
<path d="M3240 1335 l-205 -205 195 2 195 3 13 27 c9 19 12 75 10 202 l-3 176
-205 -205z"/>
<path d="M3822 3835 c-45 -20 -62 -65 -62 -165 l0 -80 121 0 121 0 -4 93 c-5
102 -16 129 -64 152 -39 18 -69 18 -112 0z"/>
<path d="M3760 2570 l0 -950 115 0 115 0 0 950 0 950 -115 0 -115 0 0 -950z"/>
<path d="M3780 1556 c0 -6 92 -220 96 -225 2 -2 10 11 18 30 8 19 30 71 50
117 l35 82 -99 0 c-55 0 -100 -2 -100 -4z"/>
</g>
</svg>
